<mxfile host="app.diagrams.net" agent="Mozilla/5.0 (Windows NT 10.0; Win64; x64) AppleWebKit/537.36 (KHTML, like Gecko) Chrome/138.0.0.0 Safari/537.36" version="28.0.7">
  <diagram name="หน้า-1" id="YeD2-zbvNSz4BnXHVZ-j">
    <mxGraphModel dx="1895" dy="3505" grid="1" gridSize="10" guides="1" tooltips="1" connect="1" arrows="1" fold="1" page="1" pageScale="1" pageWidth="827" pageHeight="1169" math="0" shadow="0">
      <root>
        <mxCell id="0" />
        <mxCell id="1" parent="0" />
        <mxCell id="3lHvDlGHn1ezDBj5FLJX-93" value="" style="edgeStyle=orthogonalEdgeStyle;rounded=0;orthogonalLoop=1;jettySize=auto;html=1;" edge="1" parent="1" source="3lHvDlGHn1ezDBj5FLJX-1" target="3lHvDlGHn1ezDBj5FLJX-89">
          <mxGeometry relative="1" as="geometry" />
        </mxCell>
        <mxCell id="3lHvDlGHn1ezDBj5FLJX-1" value="เริ่ม" style="ellipse;whiteSpace=wrap;html=1;" vertex="1" parent="1">
          <mxGeometry x="354" y="-1460" width="120" height="80" as="geometry" />
        </mxCell>
        <mxCell id="3lHvDlGHn1ezDBj5FLJX-108" value="" style="edgeStyle=orthogonalEdgeStyle;rounded=0;orthogonalLoop=1;jettySize=auto;html=1;" edge="1" parent="1" source="3lHvDlGHn1ezDBj5FLJX-3" target="3lHvDlGHn1ezDBj5FLJX-15">
          <mxGeometry relative="1" as="geometry" />
        </mxCell>
        <mxCell id="3lHvDlGHn1ezDBj5FLJX-3" value="สุ่มตัวเลข 1 - 100&amp;nbsp; เก็บใน`answer`" style="rounded=0;whiteSpace=wrap;html=1;" vertex="1" parent="1">
          <mxGeometry x="329" y="-1010" width="170" height="60" as="geometry" />
        </mxCell>
        <mxCell id="3lHvDlGHn1ezDBj5FLJX-112" value="" style="edgeStyle=orthogonalEdgeStyle;rounded=0;orthogonalLoop=1;jettySize=auto;html=1;" edge="1" parent="1" source="3lHvDlGHn1ezDBj5FLJX-14" target="3lHvDlGHn1ezDBj5FLJX-111">
          <mxGeometry relative="1" as="geometry" />
        </mxCell>
        <mxCell id="3lHvDlGHn1ezDBj5FLJX-14" value="&#xa;score = 100&#xa;&#xa;" style="rounded=0;whiteSpace=wrap;html=1;" vertex="1" parent="1">
          <mxGeometry x="354" y="-1150" width="120" height="50" as="geometry" />
        </mxCell>
        <mxCell id="3lHvDlGHn1ezDBj5FLJX-29" value="" style="edgeStyle=orthogonalEdgeStyle;rounded=0;orthogonalLoop=1;jettySize=auto;html=1;" edge="1" parent="1" source="3lHvDlGHn1ezDBj5FLJX-15" target="3lHvDlGHn1ezDBj5FLJX-28">
          <mxGeometry relative="1" as="geometry" />
        </mxCell>
        <mxCell id="3lHvDlGHn1ezDBj5FLJX-15" value="&#xa;&lt;table&gt;&lt;tbody&gt;&lt;tr&gt;&lt;td data-col-size=&quot;sm&quot; data-end=&quot;1090&quot; data-start=&quot;1081&quot;&gt;&lt;/td&gt;&lt;/tr&gt;&lt;/tbody&gt;&lt;/table&gt;&lt;table&gt;&lt;tbody&gt;&lt;tr&gt;&lt;td data-col-size=&quot;md&quot; data-end=&quot;1122&quot; data-start=&quot;1090&quot;&gt;รับค่าทายจากผู้เล่น (&lt;code data-end=&quot;1120&quot; data-start=&quot;1113&quot;&gt;guess&lt;/code&gt;)&lt;/td&gt;&lt;/tr&gt;&lt;/tbody&gt;&lt;/table&gt;&#xa;&#xa;" style="shape=parallelogram;perimeter=parallelogramPerimeter;whiteSpace=wrap;html=1;fixedSize=1;" vertex="1" parent="1">
          <mxGeometry x="324" y="-910" width="180" height="60" as="geometry" />
        </mxCell>
        <mxCell id="3lHvDlGHn1ezDBj5FLJX-32" value="Y" style="edgeStyle=orthogonalEdgeStyle;rounded=0;orthogonalLoop=1;jettySize=auto;html=1;" edge="1" parent="1" source="3lHvDlGHn1ezDBj5FLJX-28" target="3lHvDlGHn1ezDBj5FLJX-31">
          <mxGeometry x="-0.3714" relative="1" as="geometry">
            <mxPoint as="offset" />
          </mxGeometry>
        </mxCell>
        <mxCell id="3lHvDlGHn1ezDBj5FLJX-55" value="N" style="edgeStyle=orthogonalEdgeStyle;rounded=0;orthogonalLoop=1;jettySize=auto;html=1;" edge="1" parent="1" source="3lHvDlGHn1ezDBj5FLJX-28" target="3lHvDlGHn1ezDBj5FLJX-54">
          <mxGeometry relative="1" as="geometry">
            <Array as="points">
              <mxPoint x="610" y="-730" />
            </Array>
          </mxGeometry>
        </mxCell>
        <mxCell id="3lHvDlGHn1ezDBj5FLJX-28" value="ตรวจว่า &lt;code data-end=&quot;1259&quot; data-start=&quot;1242&quot;&gt;guess == answer&lt;/code&gt; ?" style="rhombus;whiteSpace=wrap;html=1;" vertex="1" parent="1">
          <mxGeometry x="305" y="-770" width="210" height="80" as="geometry" />
        </mxCell>
        <mxCell id="3lHvDlGHn1ezDBj5FLJX-44" value="" style="edgeStyle=orthogonalEdgeStyle;rounded=0;orthogonalLoop=1;jettySize=auto;html=1;entryX=0;entryY=0.5;entryDx=0;entryDy=0;" edge="1" parent="1" source="3lHvDlGHn1ezDBj5FLJX-31" target="3lHvDlGHn1ezDBj5FLJX-89">
          <mxGeometry relative="1" as="geometry">
            <mxPoint x="180" y="-560" as="targetPoint" />
            <Array as="points">
              <mxPoint x="30" y="-640" />
              <mxPoint x="30" y="-1315" />
            </Array>
          </mxGeometry>
        </mxCell>
        <mxCell id="3lHvDlGHn1ezDBj5FLJX-31" value="&#xa;แสดงข้อความ &quot;ยินดีด้วย!&quot; และคะแนน&#xa;&#xa;" style="shape=parallelogram;perimeter=parallelogramPerimeter;whiteSpace=wrap;html=1;fixedSize=1;" vertex="1" parent="1">
          <mxGeometry x="70" y="-670" width="220" height="60" as="geometry" />
        </mxCell>
        <mxCell id="3lHvDlGHn1ezDBj5FLJX-64" value="Y" style="edgeStyle=orthogonalEdgeStyle;rounded=0;orthogonalLoop=1;jettySize=auto;html=1;" edge="1" parent="1" source="3lHvDlGHn1ezDBj5FLJX-54" target="3lHvDlGHn1ezDBj5FLJX-62">
          <mxGeometry x="-0.6129" relative="1" as="geometry">
            <Array as="points">
              <mxPoint x="450" y="-635" />
            </Array>
            <mxPoint as="offset" />
          </mxGeometry>
        </mxCell>
        <mxCell id="3lHvDlGHn1ezDBj5FLJX-54" value="&#xa;หาก &lt;code data-end=&quot;1670&quot; data-start=&quot;1663&quot;&gt;guess&lt;/code&gt; &amp;lt; &lt;code data-end=&quot;1681&quot; data-start=&quot;1673&quot;&gt;answer&lt;/code&gt; ?&#xa;&#xa;" style="rhombus;whiteSpace=wrap;html=1;" vertex="1" parent="1">
          <mxGeometry x="520" y="-680" width="180" height="90" as="geometry" />
        </mxCell>
        <mxCell id="3lHvDlGHn1ezDBj5FLJX-70" style="edgeStyle=orthogonalEdgeStyle;rounded=0;orthogonalLoop=1;jettySize=auto;html=1;exitX=0;exitY=0.5;exitDx=0;exitDy=0;entryX=0.5;entryY=0;entryDx=0;entryDy=0;" edge="1" parent="1" source="3lHvDlGHn1ezDBj5FLJX-57" target="3lHvDlGHn1ezDBj5FLJX-68">
          <mxGeometry relative="1" as="geometry">
            <mxPoint x="620" y="-450" as="targetPoint" />
          </mxGeometry>
        </mxCell>
        <mxCell id="3lHvDlGHn1ezDBj5FLJX-57" value="&lt;br&gt;บอกใบ้ว่า&amp;nbsp; &quot;น้อยกว่า&quot;&lt;div&gt;&lt;br/&gt;&lt;/div&gt;" style="shape=parallelogram;perimeter=parallelogramPerimeter;whiteSpace=wrap;html=1;fixedSize=1;" vertex="1" parent="1">
          <mxGeometry x="710" y="-570" width="147" height="60" as="geometry" />
        </mxCell>
        <mxCell id="3lHvDlGHn1ezDBj5FLJX-69" style="edgeStyle=orthogonalEdgeStyle;rounded=0;orthogonalLoop=1;jettySize=auto;html=1;entryX=0.5;entryY=0;entryDx=0;entryDy=0;" edge="1" parent="1" source="3lHvDlGHn1ezDBj5FLJX-62" target="3lHvDlGHn1ezDBj5FLJX-68">
          <mxGeometry relative="1" as="geometry" />
        </mxCell>
        <mxCell id="3lHvDlGHn1ezDBj5FLJX-62" value="บอกใบ้ว่า &quot;มากกว่า&quot;" style="shape=parallelogram;perimeter=parallelogramPerimeter;whiteSpace=wrap;html=1;fixedSize=1;" vertex="1" parent="1">
          <mxGeometry x="370" y="-570" width="160" height="60" as="geometry" />
        </mxCell>
        <mxCell id="3lHvDlGHn1ezDBj5FLJX-65" value="N" style="edgeStyle=orthogonalEdgeStyle;rounded=0;orthogonalLoop=1;jettySize=auto;html=1;entryX=0.539;entryY=0.06;entryDx=0;entryDy=0;entryPerimeter=0;" edge="1" parent="1" source="3lHvDlGHn1ezDBj5FLJX-54" target="3lHvDlGHn1ezDBj5FLJX-57">
          <mxGeometry x="-0.3663" relative="1" as="geometry">
            <mxPoint as="offset" />
          </mxGeometry>
        </mxCell>
        <mxCell id="3lHvDlGHn1ezDBj5FLJX-73" style="edgeStyle=orthogonalEdgeStyle;rounded=0;orthogonalLoop=1;jettySize=auto;html=1;entryX=0.5;entryY=0;entryDx=0;entryDy=0;" edge="1" parent="1" source="3lHvDlGHn1ezDBj5FLJX-68" target="3lHvDlGHn1ezDBj5FLJX-71">
          <mxGeometry relative="1" as="geometry">
            <mxPoint x="625" y="-390" as="targetPoint" />
          </mxGeometry>
        </mxCell>
        <mxCell id="3lHvDlGHn1ezDBj5FLJX-68" value="" style="ellipse;whiteSpace=wrap;html=1;aspect=fixed;" vertex="1" parent="1">
          <mxGeometry x="610" y="-460" width="30" height="30" as="geometry" />
        </mxCell>
        <mxCell id="3lHvDlGHn1ezDBj5FLJX-75" value="" style="edgeStyle=orthogonalEdgeStyle;rounded=0;orthogonalLoop=1;jettySize=auto;html=1;" edge="1" parent="1" source="3lHvDlGHn1ezDBj5FLJX-71" target="3lHvDlGHn1ezDBj5FLJX-74">
          <mxGeometry relative="1" as="geometry" />
        </mxCell>
        <mxCell id="3lHvDlGHn1ezDBj5FLJX-71" value="&lt;br&gt;score - 10" style="whiteSpace=wrap;html=1;" vertex="1" parent="1">
          <mxGeometry x="565" y="-370" width="120" height="40" as="geometry" />
        </mxCell>
        <mxCell id="3lHvDlGHn1ezDBj5FLJX-110" value="N" style="edgeStyle=orthogonalEdgeStyle;rounded=0;orthogonalLoop=1;jettySize=auto;html=1;entryX=1;entryY=0.5;entryDx=0;entryDy=0;exitX=1;exitY=0.5;exitDx=0;exitDy=0;exitPerimeter=0;" edge="1" parent="1" source="3lHvDlGHn1ezDBj5FLJX-74">
          <mxGeometry x="-0.864" relative="1" as="geometry">
            <mxPoint x="428.9999999999866" y="-1050.05" as="targetPoint" />
            <mxPoint x="699.9999999999991" y="-245.04999999999956" as="sourcePoint" />
            <Array as="points">
              <mxPoint x="900" y="-250" />
              <mxPoint x="900" y="-1050" />
            </Array>
            <mxPoint as="offset" />
          </mxGeometry>
        </mxCell>
        <mxCell id="3lHvDlGHn1ezDBj5FLJX-74" value="ตรวจว่า `score &lt;= 0` ?" style="rhombus;whiteSpace=wrap;html=1;" vertex="1" parent="1">
          <mxGeometry x="550" y="-290" width="150" height="80" as="geometry" />
        </mxCell>
        <mxCell id="3lHvDlGHn1ezDBj5FLJX-82" value="" style="edgeStyle=orthogonalEdgeStyle;rounded=0;orthogonalLoop=1;jettySize=auto;html=1;" edge="1" parent="1" source="3lHvDlGHn1ezDBj5FLJX-76" target="3lHvDlGHn1ezDBj5FLJX-81">
          <mxGeometry relative="1" as="geometry" />
        </mxCell>
        <mxCell id="3lHvDlGHn1ezDBj5FLJX-76" value="แจ้งว่าแพ้" style="shape=parallelogram;perimeter=parallelogramPerimeter;whiteSpace=wrap;html=1;fixedSize=1;" vertex="1" parent="1">
          <mxGeometry x="413" y="-180" width="120" height="60" as="geometry" />
        </mxCell>
        <mxCell id="3lHvDlGHn1ezDBj5FLJX-77" value="Y" style="edgeStyle=orthogonalEdgeStyle;rounded=0;orthogonalLoop=1;jettySize=auto;html=1;entryX=0.579;entryY=0.005;entryDx=0;entryDy=0;entryPerimeter=0;" edge="1" parent="1" source="3lHvDlGHn1ezDBj5FLJX-74" target="3lHvDlGHn1ezDBj5FLJX-76">
          <mxGeometry x="-0.5634" relative="1" as="geometry">
            <mxPoint as="offset" />
          </mxGeometry>
        </mxCell>
        <mxCell id="3lHvDlGHn1ezDBj5FLJX-85" value="" style="edgeStyle=orthogonalEdgeStyle;rounded=0;orthogonalLoop=1;jettySize=auto;html=1;" edge="1" parent="1" source="3lHvDlGHn1ezDBj5FLJX-81" target="3lHvDlGHn1ezDBj5FLJX-84">
          <mxGeometry relative="1" as="geometry" />
        </mxCell>
        <mxCell id="3lHvDlGHn1ezDBj5FLJX-81" value="" style="ellipse;whiteSpace=wrap;html=1;aspect=fixed;" vertex="1" parent="1">
          <mxGeometry x="458" y="-90" width="30" height="30" as="geometry" />
        </mxCell>
        <mxCell id="3lHvDlGHn1ezDBj5FLJX-84" value="จบ" style="ellipse;whiteSpace=wrap;html=1;" vertex="1" parent="1">
          <mxGeometry x="413" y="-30" width="120" height="80" as="geometry" />
        </mxCell>
        <mxCell id="3lHvDlGHn1ezDBj5FLJX-104" value="" style="edgeStyle=orthogonalEdgeStyle;rounded=0;orthogonalLoop=1;jettySize=auto;html=1;" edge="1" parent="1" source="3lHvDlGHn1ezDBj5FLJX-89" target="3lHvDlGHn1ezDBj5FLJX-96">
          <mxGeometry relative="1" as="geometry" />
        </mxCell>
        <mxCell id="3lHvDlGHn1ezDBj5FLJX-89" value="" style="ellipse;whiteSpace=wrap;html=1;aspect=fixed;" vertex="1" parent="1">
          <mxGeometry x="399" y="-1330" width="30" height="30" as="geometry" />
        </mxCell>
        <mxCell id="3lHvDlGHn1ezDBj5FLJX-100" value="-1" style="edgeStyle=orthogonalEdgeStyle;rounded=0;orthogonalLoop=1;jettySize=auto;html=1;entryX=1;entryY=0.5;entryDx=0;entryDy=0;exitX=1;exitY=0.5;exitDx=0;exitDy=0;" edge="1" parent="1" source="3lHvDlGHn1ezDBj5FLJX-96" target="3lHvDlGHn1ezDBj5FLJX-81">
          <mxGeometry x="-0.809" relative="1" as="geometry">
            <mxPoint x="484.50250000000017" y="-1210" as="sourcePoint" />
            <mxPoint x="560.64" y="-115" as="targetPoint" />
            <Array as="points">
              <mxPoint x="963" y="-1230" />
              <mxPoint x="963" y="-75" />
            </Array>
            <mxPoint as="offset" />
          </mxGeometry>
        </mxCell>
        <mxCell id="3lHvDlGHn1ezDBj5FLJX-107" value="1" style="edgeStyle=orthogonalEdgeStyle;rounded=0;orthogonalLoop=1;jettySize=auto;html=1;" edge="1" parent="1" source="3lHvDlGHn1ezDBj5FLJX-96" target="3lHvDlGHn1ezDBj5FLJX-14">
          <mxGeometry relative="1" as="geometry" />
        </mxCell>
        <mxCell id="3lHvDlGHn1ezDBj5FLJX-96" value="1 = เล่น -1 =ไม่เล่น" style="rhombus;whiteSpace=wrap;html=1;" vertex="1" parent="1">
          <mxGeometry x="339.5" y="-1270" width="149" height="80" as="geometry" />
        </mxCell>
        <mxCell id="3lHvDlGHn1ezDBj5FLJX-113" value="" style="edgeStyle=orthogonalEdgeStyle;rounded=0;orthogonalLoop=1;jettySize=auto;html=1;" edge="1" parent="1" source="3lHvDlGHn1ezDBj5FLJX-111" target="3lHvDlGHn1ezDBj5FLJX-3">
          <mxGeometry relative="1" as="geometry" />
        </mxCell>
        <mxCell id="3lHvDlGHn1ezDBj5FLJX-111" value="" style="ellipse;whiteSpace=wrap;html=1;aspect=fixed;" vertex="1" parent="1">
          <mxGeometry x="399" y="-1070" width="30" height="30" as="geometry" />
        </mxCell>
      </root>
    </mxGraphModel>
  </diagram>
</mxfile>
